<svg version="1.1" id="Capa_1" xmlns="http://www.w3.org/2000/svg" x="0" y="0" viewBox="0 0 512 512" xml:space="preserve"><style>.st1{fill:#8a8a8d}</style><path fill="#fff" d="M0 0h512v512H0z"/><path class="st1" d="M416 0H96C43 0 0 43 0 96v320c0 53 43 96 96 96h320c53 0 96-43 96-96V96c0-53-43-96-96-96zm-2.7 313.3c-1.7 21.3-17.9 48.5-40.5 52.4-72.5 5.6-158.4 4.9-233.4 0-23.4-2.9-38.8-31.2-40.5-52.4-3.6-44.7-3.6-70.2 0-114.9 1.7-21.3 17.5-49.3 40.5-51.9 74.2-6.2 160.6-4.9 233.4 0 26 1 38.8 27.8 40.5 49.1 3.6 44.7 3.6 73 0 117.7z"/><path class="st1" d="M224 320l96-64-96-64zM0 0h512v116H0zm0 396h512v116H0z"/></svg>