<svg xmlns="http://www.w3.org/2000/svg" viewBox="0 0 455.7 455.7"><path d="M381.2 303.4c0 42.4-34.5 76.9-76.9 76.9h-151c-42.4 0-76.9-34.5-76.9-76.9v-151c0-42.4 34.5-76.9 76.9-76.9h151c42.4 0 76.9 34.5 76.9 76.9v151z" fill="#fff"/><path d="M228.8 182.5c-25 0-45.3 20.3-45.3 45.3 0 25 20.3 45.3 45.3 45.3 25 0 45.3-20.3 45.3-45.3 0-24.9-20.3-45.3-45.3-45.3zm0 0c-25 0-45.3 20.3-45.3 45.3 0 25 20.3 45.3 45.3 45.3 25 0 45.3-20.3 45.3-45.3 0-24.9-20.3-45.3-45.3-45.3zm75.5-73.8h-151c-24.1 0-43.7 19.6-43.7 43.7v151c0 24.1 19.6 43.7 43.7 43.7h151c24.1 0 43.7-19.6 43.7-43.7v-151c0-24.1-19.6-43.7-43.7-43.7zm-75.5 197.7c-43.3 0-78.5-35.2-78.5-78.5s35.2-78.5 78.5-78.5 78.5 35.2 78.5 78.5c0 43.2-35.2 78.5-78.5 78.5zm81-140.8c-10.2 0-18.6-8.3-18.6-18.6s8.3-18.6 18.6-18.6 18.6 8.3 18.6 18.6-8.3 18.6-18.6 18.6zm-81 16.9c-25 0-45.3 20.3-45.3 45.3 0 25 20.3 45.3 45.3 45.3 25 0 45.3-20.3 45.3-45.3 0-24.9-20.3-45.3-45.3-45.3zm75.5-73.8h-151c-24.1 0-43.7 19.6-43.7 43.7v151c0 24.1 19.6 43.7 43.7 43.7h151c24.1 0 43.7-19.6 43.7-43.7v-151c0-24.1-19.6-43.7-43.7-43.7zm-75.5 197.7c-43.3 0-78.5-35.2-78.5-78.5s35.2-78.5 78.5-78.5 78.5 35.2 78.5 78.5c0 43.2-35.2 78.5-78.5 78.5zm81-140.8c-10.2 0-18.6-8.3-18.6-18.6s8.3-18.6 18.6-18.6 18.6 8.3 18.6 18.6-8.3 18.6-18.6 18.6zm-81 16.9c-25 0-45.3 20.3-45.3 45.3 0 25 20.3 45.3 45.3 45.3 25 0 45.3-20.3 45.3-45.3 0-24.9-20.3-45.3-45.3-45.3zM1 0v455.7h455.7V0H1zm380.2 303.4c0 42.4-34.5 76.9-76.9 76.9h-151c-42.4 0-76.9-34.5-76.9-76.9v-151c0-42.4 34.5-76.9 76.9-76.9h151c42.4 0 76.9 34.5 76.9 76.9v151zm-76.9-194.7h-151c-24.1 0-43.7 19.6-43.7 43.7v151c0 24.1 19.6 43.7 43.7 43.7h151c24.1 0 43.7-19.6 43.7-43.7v-151c0-24.1-19.6-43.7-43.7-43.7zm-75.5 197.7c-43.3 0-78.5-35.2-78.5-78.5s35.2-78.5 78.5-78.5 78.5 35.2 78.5 78.5c0 43.2-35.2 78.5-78.5 78.5zm81-140.8c-10.2 0-18.6-8.3-18.6-18.6s8.3-18.6 18.6-18.6 18.6 8.3 18.6 18.6-8.3 18.6-18.6 18.6zm-81 16.9c-25 0-45.3 20.3-45.3 45.3 0 25 20.3 45.3 45.3 45.3 25 0 45.3-20.3 45.3-45.3 0-24.9-20.3-45.3-45.3-45.3zm0 0c-25 0-45.3 20.3-45.3 45.3 0 25 20.3 45.3 45.3 45.3 25 0 45.3-20.3 45.3-45.3 0-24.9-20.3-45.3-45.3-45.3zm0 0c-25 0-45.3 20.3-45.3 45.3 0 25 20.3 45.3 45.3 45.3 25 0 45.3-20.3 45.3-45.3 0-24.9-20.3-45.3-45.3-45.3zm75.5-73.8h-151c-24.1 0-43.7 19.6-43.7 43.7v151c0 24.1 19.6 43.7 43.7 43.7h151c24.1 0 43.7-19.6 43.7-43.7v-151c0-24.1-19.6-43.7-43.7-43.7zm-75.5 197.7c-43.3 0-78.5-35.2-78.5-78.5s35.2-78.5 78.5-78.5 78.5 35.2 78.5 78.5c0 43.2-35.2 78.5-78.5 78.5zm81-140.8c-10.2 0-18.6-8.3-18.6-18.6s8.3-18.6 18.6-18.6 18.6 8.3 18.6 18.6-8.3 18.6-18.6 18.6zm-81 16.9c-25 0-45.3 20.3-45.3 45.3 0 25 20.3 45.3 45.3 45.3 25 0 45.3-20.3 45.3-45.3 0-24.9-20.3-45.3-45.3-45.3zm0 0c-25 0-45.3 20.3-45.3 45.3 0 25 20.3 45.3 45.3 45.3 25 0 45.3-20.3 45.3-45.3 0-24.9-20.3-45.3-45.3-45.3zm0 0c-25 0-45.3 20.3-45.3 45.3 0 25 20.3 45.3 45.3 45.3 25 0 45.3-20.3 45.3-45.3 0-24.9-20.3-45.3-45.3-45.3zm75.5-73.8h-151c-24.1 0-43.7 19.6-43.7 43.7v151c0 24.1 19.6 43.7 43.7 43.7h151c24.1 0 43.7-19.6 43.7-43.7v-151c0-24.1-19.6-43.7-43.7-43.7zm-75.5 197.7c-43.3 0-78.5-35.2-78.5-78.5s35.2-78.5 78.5-78.5 78.5 35.2 78.5 78.5c0 43.2-35.2 78.5-78.5 78.5zm81-140.8c-10.2 0-18.6-8.3-18.6-18.6s8.3-18.6 18.6-18.6 18.6 8.3 18.6 18.6-8.3 18.6-18.6 18.6zm-81 16.9c-25 0-45.3 20.3-45.3 45.3 0 25 20.3 45.3 45.3 45.3 25 0 45.3-20.3 45.3-45.3 0-24.9-20.3-45.3-45.3-45.3z" fill="#8a8a8d"/></svg>